<svg width="40" height="40" viewBox="0 0 40 40" fill="none" xmlns="http://www.w3.org/2000/svg">
<path fill-rule="evenodd" clip-rule="evenodd" d="M33.9113 5.63367C37.6648 9.26715 40.0001 14.3611 40.0001 20.0018C40.0001 24.8982 38.2398 29.3818 35.3189 32.8565C37.7459 20.2664 31.0575 11.2955 17.9487 8.88264C22.0408 5.68306 27.484 4.45896 33.9113 5.63367Z" fill="#FFFFFF"/>
<path fill-rule="evenodd" clip-rule="evenodd" d="M5.63367 6.08872C9.27068 2.3353 14.3611 0 20.0018 0C24.8981 0 29.3818 1.7603 32.8565 4.68119C20.2664 2.25417 11.2955 8.94259 8.88263 22.0513C5.68306 17.9557 4.45896 12.5161 5.63367 6.08872Z" fill="#F5CD47"/>
<path fill-rule="evenodd" clip-rule="evenodd" d="M34.3698 33.9113C30.7328 37.6648 25.6424 40.0001 20.0017 40.0001C15.1053 40.0001 10.6217 38.2398 7.14697 35.3189C19.7371 37.7459 28.7115 31.0575 31.1209 17.9487C34.3205 22.0443 35.5445 27.484 34.3698 33.9113Z" fill="#FFFFFF"/>
<path fill-rule="evenodd" clip-rule="evenodd" d="M6.08871 34.3664C2.3353 30.7294 0 25.639 0 19.9983C0 15.1019 1.76029 10.6183 4.68118 7.14355C2.25416 19.7337 8.94258 28.7045 22.0513 31.1174C17.9592 34.317 12.5196 35.5411 6.08871 34.3664Z" fill="#FFFFFF"/>
</svg>
